# xmcd
#
# Track frame offsets:
#	150
#	15886
#	30641
#	49422
#	62152
#	78258
#	89206
#	104498
#	126398
#	137318
#	141925
#
# Disc length: 2080 seconds
#
# Revision: 1
# Processed by: cddbd v1.5.2PL0 Copyright (c) Steve Scherf et al.
# Submitted via: audiograbber 1.83.01
#
DISCID=96081e0b
DTITLE=Ned Van Go - Marry A Waitress
DYEAR=2006
DGENRE=Country Rock
TTITLE0=Charlene
TTITLE1=Marry A Waitress
TTITLE2=Factory Blues
TTITLE3=Never Kissed A Girl
TTITLE4=Death By Polygamy
TTITLE5=The Hoedown Song
TTITLE6=No Sleeping In Penn Station
TTITLE7=Bedroom Wall
TTITLE8=Country Girl
TTITLE9=Prelude To Granny Is A Racist
TTITLE10=Granny Is A Racist
EXTD=
EXTT0=
EXTT1=
EXTT2=
EXTT3=
EXTT4=
EXTT5=
EXTT6=
EXTT7=
EXTT8=
EXTT9=
EXTT10=
PLAYORDER=
